<?xml version="1.0" encoding="UTF-8"?>
<svg version="1.1" xmlns="http://www.w3.org/2000/svg" width="1024" height="1024">
<path d="M0 0 C1.24933319 -0.00570007 2.49866638 -0.01140015 3.78585815 -0.01727295 C6.41956758 -0.02666083 9.05328842 -0.03323198 11.68701172 -0.03710938 C15.62099032 -0.04673143 19.55442657 -0.07778174 23.48828125 -0.109375 C69.67532477 -0.30320356 117.26646105 6.41141508 153.5546875 37.203125 C154.44027344 37.94175781 155.32585937 38.68039063 156.23828125 39.44140625 C178.78011405 58.97766134 196.4649091 91.13020811 199.0546875 120.953125 C200.19381428 128.67045234 205.00538883 134.3815368 209.3828125 140.61328125 C213.98592038 147.17477724 217.8498758 154.10390968 221.5546875 161.203125 C222.02382568 162.1003125 222.02382568 162.1003125 222.50244141 163.015625 C240.55317683 198.13513585 245.53528246 237.19657651 233.9140625 275.08984375 C227.79308989 294.00643931 217.10502137 311.33443974 206.76904297 328.21728516 C179.61265841 372.62621801 168.73123576 408.08054356 181.015625 460.71875 C183.40396661 470.35294794 186.20102454 479.85999174 189.5546875 489.203125 C190.22935059 489.18741455 190.90401367 489.1717041 191.59912109 489.15551758 C194.70922174 489.09246421 197.81918722 489.05391369 200.9296875 489.015625 C202.52103516 488.97791992 202.52103516 488.97791992 204.14453125 488.93945312 C216.27835505 488.82779217 225.82535929 491.75778678 234.68359375 500.2421875 C240.19131547 506.15750153 244.93592279 512.81388428 247.74609375 520.43359375 C249.34722088 523.56798042 249.34722088 523.56798042 253.03125 524.0859375 C254.41214773 524.194607 255.79556288 524.27439743 257.1796875 524.328125 C267.63498557 524.86788226 274.94277468 529.24375901 283.4296875 535.078125 C297.80012045 544.67996814 313.28339848 552.5358407 329.03588867 559.61450195 C337.43370944 563.38926548 344.09649601 567.48740934 349.6171875 575.015625 C351.36775391 580.96755078 351.68221773 586.76014283 349.0546875 592.453125 C336.96665151 605.74996459 320.57261448 612.96328198 304.32446289 619.96826172 C301.66429717 621.15425716 299.04134784 622.4059933 296.41734314 623.66950989 C287.43803818 627.96614668 278.25023393 631.39982763 268.8671875 634.703125 C267.17917194 635.30340547 265.49126787 635.90399953 263.8034668 636.50488281 C248.98358162 641.76387779 234.09518911 646.82252664 219.20385742 651.87475586 C204.59735769 656.83189419 190.04669509 661.91888381 175.5546875 667.203125 C174.85531067 667.45773499 174.15593384 667.71234497 173.43536377 667.97467041 C152.30152903 675.66937102 131.25233664 683.55456336 110.30371094 691.73974609 C100.72906558 695.47959795 91.14004978 699.18266487 81.55062866 702.88442993 C78.15487402 704.1958833 74.7607372 705.51132331 71.36914062 706.83349609 C34.16777266 721.33364329 -2.91955247 733.67283344 -42.4453125 740.203125 C-44.38446533 740.52506836 -44.38446533 740.52506836 -46.36279297 740.85351562 C-67.48890695 744.16720959 -88.60212831 744.57051105 -109.9453125 744.578125 C-111.91422455 744.58111603 -111.91422455 744.58111603 -113.9229126 744.58416748 C-173.26153415 744.57395701 -173.26153415 744.57395701 -191.52734375 727.375 C-195.67345063 722.68001951 -198.26107315 716.97771701 -197.89355469 710.59326172 C-195.79079036 699.38080921 -190.66275936 688.83578192 -185.6328125 678.703125 C-185.00583768 677.42318263 -184.37937797 676.14298781 -183.75341797 674.86254883 C-180.05993691 667.33445868 -176.24772134 659.88022973 -172.23046875 652.51953125 C-170.24238126 648.82612583 -168.36905897 645.08643729 -166.5078125 641.328125 C-165.83899551 639.99196023 -165.16972191 638.65602393 -164.5 637.3203125 C-163.45291379 635.23115005 -162.41435874 633.13923069 -161.39550781 631.03613281 C-153.8863289 615.5574685 -145.04303909 604.79086461 -130.078125 595.77734375 C-128.99144531 595.12185547 -128.99144531 595.12185547 -127.8828125 594.453125 C-127.24214844 594.08703125 -126.60148438 593.7209375 -125.94140625 593.34375 C-124.12533735 592.18104131 -124.12533735 592.18104131 -123.4453125 589.203125 C-122.89784758 578.07133832 -125.0968529 567.04601292 -127.4453125 556.203125 C-128.70408203 556.74839844 -128.70408203 556.74839844 -129.98828125 557.3046875 C-146.25627306 564.10481269 -163.00666278 568.65483813 -180.4453125 571.203125 C-181.26644531 571.33460938 -182.08757812 571.46609375 -182.93359375 571.6015625 C-207.31052467 574.99872425 -236.15944049 570.73890092 -256.4453125 556.203125 C-268.63454888 546.91836847 -277.57462688 535.60043875 -280.4453125 520.203125 C-280.62707031 519.24921875 -280.80882812 518.2953125 -280.99609375 517.3125 C-284.87439494 490.46791092 -273.82122092 464.27440701 -260.5703125 441.578125 C-259.95144165 440.51549438 -259.95144165 440.51549438 -259.32006836 439.43139648 C-257.24897707 435.95693405 -255.09717211 432.67702325 -252.5859375 429.50390625 C-245.10242714 419.86571706 -244.45823404 412.59477511 -245.37060547 400.56738281 C-245.47199487 397.35870644 -245.0720933 394.29365061 -244.58618164 391.12646484 C-244.30517329 388.98240801 -244.30517329 388.98240801 -245.4453125 386.203125 C-246.0434375 385.914375 -246.6415625 385.625625 -247.2578125 385.328125 C-251.81453108 382.98466973 -253.64363951 379.18938952 -255.2578125 374.515625 C-257.4399102 366.43466977 -256.13782493 359.7206502 -252.48046875 352.30859375 C-251.33782377 349.98449699 -250.38426062 347.61575852 -249.4453125 345.203125 C-250.10015625 345.18894531 -250.755 345.17476563 -251.4296875 345.16015625 C-261.10740102 344.65440004 -270.86045763 341.82738183 -278.04296875 334.99609375 C-281.85895672 330.11715649 -284.29340702 323.58684327 -283.875 317.34765625 C-280.67107632 301.35716442 -269.30893328 285.57623579 -261.5703125 271.453125 C-259.52386569 267.70571338 -257.48366417 263.95494494 -255.4453125 260.203125 C-254.84734863 259.10661621 -254.24938477 258.01010742 -253.63330078 256.88037109 C-251.78431247 253.47520322 -249.9563625 250.05947113 -248.1328125 246.640625 C-247.55096191 245.57553711 -246.96911133 244.51044922 -246.36962891 243.41308594 C-245.84159668 242.41438477 -245.31356445 241.41568359 -244.76953125 240.38671875 C-244.29604248 239.50556396 -243.82255371 238.62440918 -243.3347168 237.71655273 C-242.27417041 234.71948299 -242.47332207 233.20035694 -243.4453125 230.203125 C-245.20748005 227.64115413 -245.20748005 227.64115413 -247.3828125 225.203125 C-252.10208652 219.7215726 -254.27171964 214.94508709 -254.14453125 207.67578125 C-252.50465996 199.53139258 -247.55467181 192.32601448 -243.4453125 185.203125 C-242.69418256 183.86855339 -241.94531731 182.53270343 -241.19921875 181.1953125 C-239.75744805 178.6155103 -238.30778986 176.04041911 -236.8515625 173.46875 C-229.23952098 159.99441477 -221.94453219 146.46329641 -215.40795898 132.43017578 C-212.2709649 125.74844173 -208.84414698 119.321512 -204.90942383 113.07275391 C-203.68400507 111.11996125 -203.68400507 111.11996125 -202.4453125 108.203125 C-203.29811908 104.85842969 -205.73242263 102.55983425 -207.9453125 99.953125 C-212.46768365 94.17768018 -213.75208508 89.61144668 -213.3203125 82.328125 C-212.08826186 73.08066445 -207.87195747 65.64124637 -202.4453125 58.203125 C-201.93097656 57.45804688 -201.41664063 56.71296875 -200.88671875 55.9453125 C-200.17322266 55.08292969 -200.17322266 55.08292969 -199.4453125 54.203125 C-198.7853125 54.203125 -198.1253125 54.203125 -197.4453125 54.203125 C-197.4453125 53.543125 -197.4453125 52.883125 -197.4453125 52.203125 C-195.35383254 50.5275301 -193.26810737 48.97822309 -191.0703125 47.453125 C-190.42328369 47.00138916 -189.77625488 46.54965332 -189.10961914 46.08422852 C-187.22812481 44.78057665 -185.33804024 43.49039046 -183.4453125 42.203125 C-182.24841797 41.37361328 -182.24841797 41.37361328 -181.02734375 40.52734375 C-133.26367042 9.64190836 -55.63139516 0.20370551 0 0 Z M13.5546875 20.203125 C13.5546875 21.193125 13.5546875 22.183125 13.5546875 23.203125 C14.53695312 23.71359375 14.53695312 23.71359375 15.5390625 24.234375 C32.53514408 33.26054262 47.23082526 44.7637351 61.16210938 57.90771484 C62.93692803 59.55869447 64.76966677 61.13425925 66.6171875 62.703125 C78.70092668 73.2029491 90.85494541 83.83593859 93.5546875 100.203125 C79.74511475 96.57464375 72.35580884 91.3158941 62.91601562 80.94726562 C39.85758378 55.76340491 -4.97820905 27.96835275 -39.6484375 26.0234375 C-62.52918215 25.57770871 -85.65640629 29.31856304 -107.4453125 36.203125 C-107.4453125 37.193125 -107.4453125 38.183125 -107.4453125 39.203125 C-106.48568604 39.50903564 -105.52605957 39.81494629 -104.53735352 40.13012695 C-77.18567808 48.88576547 -51.4962889 59.60745777 -25.73144531 72.2734375 C-15.89560841 77.09616302 -5.97223631 81.60053812 4.16796875 85.75390625 C5.11929688 86.15480469 6.070625 86.55570312 7.05078125 86.96875 C7.87763428 87.30680664 8.7044873 87.64486328 9.55639648 87.99316406 C11.92172925 89.425368 12.57203558 90.65884786 13.5546875 93.203125 C10.5131634 96.71257588 8.11873002 98.25587089 3.5546875 99.203125 C-5.57402117 99.35036224 -13.36266107 94.9964755 -21.4453125 91.203125 C-22.70145441 90.62289945 -23.95795251 90.04344428 -25.21484375 89.46484375 C-30.35004285 87.09107681 -35.46436256 84.67462588 -40.56640625 82.23046875 C-48.39069597 78.49473361 -56.24615069 74.94468996 -64.29833984 71.72460938 C-68.17204981 70.17008578 -71.96651284 68.50644694 -75.75 66.7421875 C-81.28946671 64.20815583 -86.91078048 62.16411325 -92.6953125 60.265625 C-93.72382324 59.92644043 -94.75233398 59.58725586 -95.81201172 59.23779297 C-106.5718345 55.74958339 -117.4276762 52.75806559 -128.4453125 50.203125 C-129.14366211 50.03490234 -129.84201172 49.86667969 -130.56152344 49.69335938 C-147.29438456 45.80359033 -163.63416625 53.54614234 -177.71875 62.21875 C-184.44526773 66.89966919 -191.19554293 72.46987704 -194.4453125 80.203125 C-194.97685875 84.91110603 -195.16026328 87.85144503 -192.2578125 91.703125 C-189.76904857 94.38257987 -189.76904857 94.38257987 -187.078125 94.52734375 C-183.95577256 94.14284041 -182.1858519 93.15380935 -179.5078125 91.515625 C-162.36978548 81.74556377 -143.84631352 79.6838768 -124.4453125 80.203125 C-123.22070312 80.23148438 -121.99609375 80.25984375 -120.734375 80.2890625 C-108.06764174 80.81165857 -90.77992304 82.07305025 -80.76953125 90.63671875 C-78.76268304 93.01060114 -78.63572771 95.15648157 -78.4453125 98.203125 C-79.1053125 99.193125 -79.7653125 100.183125 -80.4453125 101.203125 C-87.50311179 101.8598578 -94.43000288 100.40925732 -101.3828125 99.265625 C-123.1595035 95.74603416 -147.7621518 92.56446392 -167.4453125 105.203125 C-165.26723906 108.47023516 -164.90345639 108.66400476 -161.359375 109.66796875 C-160.52108154 109.90870117 -159.68278809 110.14943359 -158.8190918 110.39746094 C-157.91199463 110.64270508 -157.00489746 110.88794922 -156.0703125 111.140625 C-155.13292236 111.40004883 -154.19553223 111.65947266 -153.22973633 111.92675781 C-112.09201387 123.05493749 -69.61969711 122.82190165 -27.4453125 119.203125 C-25.65867187 119.05037109 -25.65867187 119.05037109 -23.8359375 118.89453125 C-10.99308077 117.76869641 1.81931099 116.4172118 14.625 114.93359375 C15.58858429 114.82232651 16.55216858 114.71105927 17.54495239 114.59642029 C22.30279578 114.04596467 27.05957101 113.48817847 31.81494141 112.91674805 C33.59796434 112.70737105 35.38100403 112.4981367 37.1640625 112.2890625 C37.9300174 112.1943718 38.69597229 112.09968109 39.48513794 112.00212097 C54.60579994 110.25003126 69.83175285 110.05425293 85.03515625 110.10546875 C86.71193906 110.10734163 88.38872242 110.1087614 90.06550598 110.10975647 C94.40702924 110.1135133 98.74851722 110.12328215 103.09002686 110.13446045 C107.54894535 110.14482454 112.00786973 110.14928568 116.46679688 110.15429688 C125.16277632 110.16491308 133.85872748 110.18190349 142.5546875 110.203125 C141.22401729 106.6965566 140.13513487 104.4432172 137.3671875 101.890625 C133.50689299 98.18853928 130.03343708 94.26276636 126.5546875 90.203125 C125.6708962 89.18331349 124.78675505 88.16380512 123.90234375 87.14453125 C118.48225553 80.87863309 113.18278384 74.53551076 107.9921875 68.078125 C92.29560068 48.63428065 76.66881843 33.26167386 52.5546875 25.203125 C51.6884375 24.90664062 50.8221875 24.61015625 49.9296875 24.3046875 C38.3616351 20.74257381 25.60383052 19.81444297 13.5546875 20.203125 Z M97.5546875 30.203125 C101.0742037 34.37097314 104.67435396 38.43767261 108.3671875 42.453125 C113.31093119 47.87505818 117.95546153 53.4884962 122.5546875 59.203125 C125.28303658 62.56712043 128.01612195 65.92727129 130.75048828 69.28637695 C133.19213545 72.28749378 135.62610904 75.29287994 138.03515625 78.3203125 C147.82627468 90.55487818 159.03049857 102.68699731 174.5546875 107.203125 C173.10606635 86.43955518 156.58434942 65.80557905 141.625 52.6796875 C130.51229627 43.71600536 112.38687255 30.203125 97.5546875 30.203125 Z M-185.4453125 118.203125 C-190.53217495 125.47007136 -194.31230252 133.55867324 -198.3203125 141.453125 C-202.6473121 149.97451931 -207.02151299 158.40540546 -211.91894531 166.61914062 C-213.44443616 169.20164144 -214.89332539 171.81512296 -216.3203125 174.453125 C-218.80155105 179.03845385 -221.32997031 183.59492925 -223.8828125 188.140625 C-224.2641333 188.82342529 -224.6454541 189.50622559 -225.03833008 190.2097168 C-226.8260443 193.39585119 -228.63954028 196.55140813 -230.578125 199.6484375 C-235.19506358 206.90596857 -235.19506358 206.90596857 -235.4453125 215.203125 C-232.03763299 217.17957911 -228.67055149 219.0926304 -225.1328125 220.828125 C-222.4453125 222.203125 -222.4453125 222.203125 -220.4453125 224.203125 C-220.52280685 231.99905674 -223.20744209 237.5361296 -226.8203125 244.328125 C-227.92384395 246.46382753 -229.02535911 248.60057293 -230.125 250.73828125 C-230.6828418 251.81609863 -231.24068359 252.89391602 -231.81542969 254.00439453 C-234.29747925 258.87554693 -236.61910493 263.81870464 -238.9453125 268.765625 C-246.04649101 283.745681 -253.3588041 298.77941709 -262.23828125 312.80078125 C-263.66712584 315.64459816 -264.20959747 318.03406737 -264.4453125 321.203125 C-262.60389331 323.55252189 -261.1053231 324.8731197 -258.4453125 326.203125 C-255.87167426 326.30222319 -253.33097159 326.34204651 -250.7578125 326.328125 C-249.71463867 326.33392578 -249.71463867 326.33392578 -248.65039062 326.33984375 C-244.15685047 326.33145245 -239.89686055 325.87319466 -235.4453125 325.203125 C-227.37911731 324.74066314 -219.51418106 325.39527477 -211.53369141 326.49145508 C-206.79321337 327.12687604 -202.22978606 327.28884905 -197.4453125 327.203125 C-196.7853125 325.553125 -196.1253125 323.903125 -195.4453125 322.203125 C-197.38270005 320.05047216 -198.99248745 318.89670703 -201.5703125 317.453125 C-204.4453125 315.203125 -204.4453125 315.203125 -205.3203125 311.453125 C-205.3615625 310.380625 -205.4028125 309.308125 -205.4453125 308.203125 C-201.70971226 305.71272484 -198.76968099 305.685475 -194.4453125 306.203125 C-187.71210887 308.48556691 -182.62810445 311.67589121 -179.16015625 318.0546875 C-177.74288216 322.31425445 -178.15709746 326.77582177 -178.4453125 331.203125 C-177.81109375 331.36167969 -177.176875 331.52023437 -176.5234375 331.68359375 C-174.47717339 332.19515978 -172.43169827 332.70988526 -170.38671875 333.2265625 C-167.5051338 333.9486406 -164.61621 334.63225418 -161.72265625 335.3046875 C-151.18246044 337.78984918 -141.33825239 340.76428801 -131.4453125 345.203125 C-130.48882812 345.6259375 -129.53234375 346.04875 -128.546875 346.484375 C-117.63789446 351.59488841 -112.02568046 358.18996171 -107.6953125 369.390625 C-105.779271 375.47432738 -105.7064581 381.87259554 -105.4453125 388.203125 C-104.7853125 388.203125 -104.1253125 388.203125 -103.4453125 388.203125 C-99.66024725 383.2970054 -97.11964881 377.56107851 -94.625 371.92602539 C-88.93542253 359.17907586 -81.06520417 351.40955549 -70.11328125 343.03515625 C-47.23105543 325.49070434 -25.44530812 306.1640158 -21.4453125 276.203125 C-21.15684304 271.78230505 -21.11176705 267.38240739 -21.1328125 262.953125 C-21.13627686 261.7674292 -21.13974121 260.5817334 -21.14331055 259.36010742 C-21.25139173 250.63538815 -21.9909856 242.61632929 -24.4453125 234.203125 C-24.65027344 233.44902344 -24.85523438 232.69492187 -25.06640625 231.91796875 C-26.38088852 227.81123221 -28.4976234 224.53345149 -30.8828125 220.953125 C-38.78755875 208.72756406 -40.10776794 196.46878736 -37.8203125 182.34375 C-34.26904266 167.31426871 -26.15544328 152.15841801 -16.71484375 139.96875 C-15.2507178 138.29493183 -15.2507178 138.29493183 -15.4453125 136.203125 C-20.96315553 136.11033616 -26.22877221 136.42026782 -31.6953125 137.140625 C-34.60973111 137.51676889 -37.52551346 137.87117219 -40.4453125 138.203125 C-41.24493408 138.29577637 -42.04455566 138.38842773 -42.8684082 138.48388672 C-53.58942311 139.55376333 -64.36964359 139.44692181 -75.1328125 139.453125 C-76.70958267 139.45413712 -76.70958267 139.45413712 -78.31820679 139.45516968 C-93.92623023 139.43925299 -109.04381975 138.92165954 -124.4453125 136.203125 C-126.02481689 135.94571533 -126.02481689 135.94571533 -127.63623047 135.68310547 C-146.28386338 132.62929291 -164.67129258 128.41549929 -181.36328125 119.26953125 C-183.35211913 118.05116638 -183.35211913 118.05116638 -185.4453125 118.203125 Z M49.5546875 129.203125 C47.82677979 129.33122559 47.82677979 129.33122559 46.06396484 129.46191406 C19.27564147 131.15297388 19.27564147 131.15297388 -1.4453125 147.203125 C-14.1288942 163.86193293 -22.02344784 183.06727959 -19.4453125 204.203125 C-18.08862376 208.84717493 -15.87089087 212.37284279 -12.91796875 216.1640625 C-0.7423063 232.33631644 -1.56434102 261.17361958 -4.1953125 280.265625 C-7.24338083 296.45191887 -13.48913181 310.82860197 -24.4453125 323.203125 C-25.12207031 323.99976563 -25.79882812 324.79640625 -26.49609375 325.6171875 C-35.01109799 335.42423077 -44.72448556 343.91651565 -54.81640625 352.0546875 C-67.25061772 362.21637592 -76.57659944 371.59090481 -81.3203125 387.203125 C-84.9642055 398.52677654 -92.95190474 407.62397076 -103.1953125 413.640625 C-107.75470821 415.75552542 -112.5010094 415.63055607 -117.44921875 415.859375 C-121.5427688 416.32903915 -123.30858918 417.6294033 -126.4453125 420.203125 C-131.24567988 422.12327195 -136.68727001 421.86239093 -141.4453125 420.078125 C-143.4453125 418.203125 -143.4453125 418.203125 -144.0703125 415.203125 C-143.4453125 412.203125 -143.4453125 412.203125 -141.3828125 410.515625 C-138.4453125 409.203125 -138.4453125 409.203125 -135.0078125 408.078125 C-130.15802091 406.09363698 -127.76987098 401.70403186 -125.4453125 397.203125 C-122.60554208 388.95918541 -123.66046819 378.99876142 -127.328125 371.24609375 C-132.93548869 360.99206855 -143.76736481 357.32389594 -154.4453125 354.078125 C-155.52949463 353.739021 -156.61367676 353.39991699 -157.73071289 353.05053711 C-165.80397832 350.57565608 -173.91501821 348.55413998 -182.19140625 346.89453125 C-185.4453125 346.203125 -185.4453125 346.203125 -187.4453125 345.203125 C-188.0703125 342.640625 -188.0703125 342.640625 -188.4453125 340.203125 C-190.59007107 340.66271612 -192.33925882 341.14353579 -194.26025391 342.22290039 C-196.86676091 343.39218817 -198.80574391 343.47286899 -201.65625 343.51171875 C-202.65398437 343.53685547 -203.65171875 343.56199219 -204.6796875 343.58789062 C-206.76556504 343.62291469 -208.851509 343.65419337 -210.9375 343.68164062 C-217.75352331 343.8617031 -222.36879237 344.47695592 -227.640625 349.1484375 C-232.33362302 354.44943526 -237.25596893 360.03675033 -237.52734375 367.44140625 C-237.18106006 371.01531523 -236.44587793 373.20227686 -234.4453125 376.203125 C-232.7128125 375.70425781 -232.7128125 375.70425781 -230.9453125 375.1953125 C-226.72423202 374.14929913 -222.76998311 374.02295973 -218.4453125 374.328125 C-217.68404053 374.37743164 -216.92276855 374.42673828 -216.13842773 374.47753906 C-195.80464153 376.02747547 -166.13839093 378.79638539 -149.3203125 391.578125 C-146.03626371 396.17579331 -143.92434025 400.47243027 -144.4453125 406.203125 C-150.79721029 404.88122525 -156.99498565 403.22548282 -163.23022461 401.43579102 C-178.17195056 397.16030617 -193.12057241 393.84299829 -208.4453125 391.203125 C-209.55777344 391.00332031 -210.67023438 390.80351563 -211.81640625 390.59765625 C-220.32252915 389.25443967 -220.32252915 389.25443967 -228.1328125 391.953125 C-230.14299951 396.93073093 -229.94146263 401.90001211 -229.4453125 407.203125 C-227.53343315 409.11500435 -224.08829386 408.40254499 -221.55078125 408.44921875 C-220.1048132 408.48222509 -218.6588498 408.51543533 -217.21289062 408.54882812 C-214.94022732 408.59573477 -212.66757245 408.64001451 -210.39477539 408.67993164 C-185.9880031 409.1295655 -185.9880031 409.1295655 -181.12963867 413.09155273 C-179.4453125 415.203125 -179.4453125 415.203125 -179.3203125 418.203125 C-180.85965736 422.30804463 -182.58990398 423.16166252 -186.4453125 425.203125 C-189.48819182 425.78257175 -192.47851556 425.82767744 -195.5703125 425.85546875 C-197.34635939 425.91063942 -199.12240091 425.96598323 -200.8984375 426.02148438 C-203.67634632 426.0851325 -206.45424135 426.1407869 -209.23242188 426.19116211 C-211.9293319 426.24675128 -214.62425122 426.33123745 -217.3203125 426.41796875 C-218.14547363 426.42336166 -218.97063477 426.42875458 -219.82080078 426.43431091 C-225.73522386 426.63690614 -228.32778529 427.91868646 -232.4453125 432.203125 C-234.29705688 434.47482945 -234.29705688 434.47482945 -235.77734375 436.90625 C-236.34388672 437.79538086 -236.91042969 438.68451172 -237.49414062 439.60058594 C-238.3671582 441.01259277 -238.3671582 441.01259277 -239.2578125 442.453125 C-239.86947266 443.43313477 -240.48113281 444.41314453 -241.11132812 445.42285156 C-254.89569904 467.72622515 -266.55170182 491.06655431 -261.76171875 518.0546875 C-257.97848515 531.46083477 -249.01587123 540.03808362 -237.14453125 546.85546875 C-209.97856688 560.41879394 -176.55676077 555.06242241 -148.8828125 546.015625 C-131.55913277 540.05661152 -114.61179145 532.82037402 -98.4453125 524.203125 C-97.41543213 523.66316895 -97.41543213 523.66316895 -96.36474609 523.11230469 C-68.28127238 508.33019112 -41.96721939 488.98027585 -18.77734375 467.32421875 C-16.4453125 465.203125 -16.4453125 465.203125 -13.98046875 463.32421875 C1.85423449 450.07576904 9.95727427 429.03899596 12.2421875 409.06640625 C12.77994208 402.4184152 12.85036442 395.85810703 12.5546875 389.203125 C12.50900635 388.12756348 12.50900635 388.12756348 12.46240234 387.03027344 C11.73161848 372.75666519 8.91211881 358.86910561 6.03100586 344.90527344 C-0.78696849 311.69188986 -1.0048446 268.35917544 17.8671875 238.703125 C26.34759195 226.0807572 38.16131144 216.4262366 53.13671875 212.6640625 C66.87751437 210.04465397 78.56593647 211.69924881 90.5546875 219.203125 C102.43496604 227.94737626 108.17442891 243.28562042 110.8046875 257.265625 C114.41371168 282.75845943 104.96706984 308.68797155 89.9921875 329.078125 C79.04402914 343.5619298 66.41475313 357.56755173 47.5546875 360.203125 C40.47651103 360.67441062 33.57215702 360.1387876 26.5546875 359.203125 C26.41581617 364.27771498 26.7442302 368.9063573 27.62280273 373.89916992 C32.8905298 404.2876124 30.57071907 434.02321822 13.2421875 460.078125 C8.49034421 466.57805572 3.13950129 472.42190339 -2.4453125 478.203125 C-3.06148438 478.85925781 -3.67765625 479.51539063 -4.3125 480.19140625 C-8.76368142 484.82361658 -13.6902536 488.84263166 -18.71826172 492.83105469 C-19.93665398 493.79901687 -21.1514985 494.77145285 -22.36376953 495.74707031 C-49.88408933 517.87060764 -80.22785335 534.93682145 -111.4453125 551.203125 C-110.87459937 555.68057547 -110.07522853 560.01186308 -109.03637695 564.40307617 C-105.05362985 581.26306566 -104.00349513 597.94030603 -103.4453125 615.203125 C-56.46609578 616.05526651 -16.67253374 600.79028066 23.5546875 577.203125 C25.44525969 576.10407582 27.33588433 575.00511686 29.2265625 573.90625 C41.17178131 566.93195819 52.90571409 559.65938794 64.5546875 552.203125 C77.21024311 544.11448376 89.88455528 536.07551219 102.73925781 528.30615234 C104.27563119 527.37267535 105.80293187 526.42429084 107.328125 525.47265625 C125.56701913 514.17181321 145.84416401 505.73217325 166.2578125 499.296875 C169.3690362 498.53827145 169.3690362 498.53827145 170.5546875 497.203125 C170.03589786 490.13334466 167.69675877 483.41858798 165.7421875 476.640625 C156.08064242 442.46799897 149.79498522 404.43079353 162.5546875 370.203125 C163.02261719 368.85927734 163.02261719 368.85927734 163.5 367.48828125 C167.55227761 356.78726666 173.75998736 347.02690736 179.5546875 337.203125 C179.9573584 336.51814941 180.3600293 335.83317383 180.77490234 335.12744141 C184.29948391 329.14609711 187.90478255 323.22078389 191.61328125 317.3515625 C213.7824433 282.18111063 228.37313253 248.93213143 219.15332031 206.77148438 C217.67688997 200.43704426 215.7935872 194.30726605 213.5546875 188.203125 C213.30879883 187.52475586 213.06291016 186.84638672 212.80957031 186.14746094 C206.17364505 168.1713472 195.64270042 145.68307004 178.8203125 135.21875 C171.33312593 131.86242499 163.24520512 131.16808874 155.1796875 130.140625 C154.49318115 130.05252563 153.8066748 129.96442627 153.09936523 129.87365723 C139.92168051 128.20413808 126.83635735 127.37528014 113.5546875 127.203125 C112.38035156 127.18266113 111.20601562 127.16219727 109.99609375 127.14111328 C89.75704893 126.81990074 69.72834361 127.69525312 49.5546875 129.203125 Z M33.58984375 246.6328125 C25.57607395 258.17123817 21.91424861 272.52106564 19.5546875 286.203125 C19.37164063 287.22664063 19.18859375 288.25015625 19 289.3046875 C18.36579383 294.85677307 18.28988929 300.36883533 18.2421875 305.953125 C18.19868164 307.62761719 18.19868164 307.62761719 18.15429688 309.3359375 C18.07553915 319.73195711 20.16911491 328.90259888 27.58984375 336.54296875 C33.89320921 341.86887396 40.27556583 342.86484557 48.40234375 342.58984375 C57.07832533 341.525504 63.83566896 336.7669596 69.23046875 330.03125 C70.12111042 328.84727924 70.99958353 327.65407992 71.8671875 326.453125 C72.33721191 325.80408203 72.80723633 325.15503906 73.29150391 324.48632812 C86.61737206 305.61513583 97.67683546 280.20191457 94.12109375 256.546875 C91.76827256 246.81106316 87.4227704 239.97837297 79.4921875 233.828125 C62.3688929 224.35566416 44.9664215 232.56475811 33.58984375 246.6328125 Z " fill="#FEFEFE" transform="translate(503.4453125,139.796875)"/>
<path d="M0 0 C4.74229441 3.72285214 8.48346629 7.45315154 10.703125 13.11328125 C10.453125 15.92578125 10.453125 15.92578125 8.390625 18.80078125 C4.85073116 21.36155551 3.73666358 21.452986 -0.546875 20.92578125 C-3.27584943 19.69819972 -5.76166838 18.13361829 -8.296875 16.55078125 C-19.50770562 9.94430771 -28.78009176 8.84061625 -41.63671875 11.58544922 C-44.75065662 12.39326356 -47.83640951 13.26538291 -50.921875 14.17578125 C-52.005896 14.48717041 -53.08991699 14.79855957 -54.20678711 15.11938477 C-62.11105243 17.42088087 -69.85695547 19.99142003 -77.546875 22.92578125 C-76.79817139 22.96541992 -76.04946777 23.00505859 -75.27807617 23.04589844 C-25.61075972 25.79948884 -25.61075972 25.79948884 -11.546875 38.92578125 C-10.421875 42.55078125 -10.421875 42.55078125 -10.546875 45.92578125 C-12.31219067 48.57375475 -13.47787079 48.90277985 -16.546875 49.92578125 C-22.23491043 50.30639329 -26.75722626 49.20717801 -32.109375 47.55078125 C-39.89599095 45.25125338 -47.45976019 43.79690133 -55.546875 42.92578125 C-56.206875 45.56578125 -56.866875 48.20578125 -57.546875 50.92578125 C-56 50.83296875 -56 50.83296875 -54.421875 50.73828125 C-50.21323846 50.94192495 -48.02416943 51.5806292 -44.546875 53.92578125 C-43.171875 56.61328125 -43.171875 56.61328125 -42.546875 58.92578125 C-51.61568789 65.0279346 -59.45776905 67.94135584 -70.546875 67.92578125 C-75.01209682 67.00194225 -76.00639223 66.7365054 -78.546875 62.92578125 C-80.56445885 55.64211844 -82.00065446 48.48877222 -81.546875 40.92578125 C-82.7534375 41.17328125 -82.7534375 41.17328125 -83.984375 41.42578125 C-94.72210159 42.9328306 -94.72210159 42.9328306 -98.31640625 40.94921875 C-100.57456859 39.08552021 -102.47120199 37.02037252 -104.296875 34.73828125 C-106.88145216 32.65626076 -108.19003745 32.56670324 -111.421875 32.11328125 C-116.1960738 31.29282635 -118.72074882 29.90860614 -121.61328125 26 C-123.02976824 22.85290965 -122.82600208 20.30604651 -122.3671875 16.94140625 C-121.28541293 14.2833316 -119.93024428 13.49079016 -117.546875 11.92578125 C-115.46755981 11.15655518 -115.46755981 11.15655518 -113.21923828 10.59472656 C-112.36959503 10.37729797 -111.51995178 10.15986938 -110.64456177 9.93585205 C-109.72802826 9.71080994 -108.81149475 9.48576782 -107.8671875 9.25390625 C-106.90400604 9.00840027 -105.94082458 8.76289429 -104.94845581 8.50994873 C-101.85840658 7.72311465 -98.76551979 6.94834745 -95.671875 6.17578125 C-91.65154887 5.16827159 -87.63314927 4.15367958 -83.6171875 3.12890625 C-82.61971497 2.87443726 -81.62224243 2.61996826 -80.59454346 2.35778809 C-72.63742328 0.29031515 -64.8142428 -2.11068857 -57.02102661 -4.72723389 C-37.51500281 -11.19642199 -17.59908777 -12.01575145 0 0 Z " fill="#FEFEFE" transform="translate(413.546875,341.07421875)"/>
<path d="M0 0 C2.87086904 3.67830095 3.23859091 6.96345455 3 11.5625 C2.1875 14.4375 2.1875 14.4375 0 16.5625 C-2.48807289 17.47234988 -4.97985236 18.15167297 -7.546875 18.8046875 C-10.64300314 19.76113473 -12.68495302 21.32462125 -15 23.5625 C-14.31939189 27.19815345 -12.73071334 29.97412952 -10.9375 33.1875 C-8.10686599 38.80774433 -6.5995154 43.31823408 -8 49.5625 C-10.62490022 55.86447564 -15.15280757 60.7259006 -21.33203125 63.67578125 C-24.24963505 64.64546802 -26.61896828 64.86244121 -29.6875 64.875 C-30.64011719 64.89175781 -31.59273437 64.90851563 -32.57421875 64.92578125 C-33.37472656 64.80589844 -34.17523437 64.68601562 -35 64.5625 C-37.50304378 60.80793433 -37.45280074 59.01504066 -37 54.5625 C-35.13871846 50.90887327 -33.93646177 49.03073088 -30.25 47.1875 C-29.5075 46.98125 -28.765 46.775 -28 46.5625 C-29.083109 42.44668578 -30.77748413 39.15105001 -33 35.5625 C-36.55309068 29.76489595 -39.26842993 24.48120872 -38 17.5625 C-30.54269059 6.44824078 -13.99768697 -6.707225 0 0 Z " fill="#FEFEFE" transform="translate(578,387.4375)"/>
<path d="M0 0 C14.08952008 13.83121221 20.82043047 35.85869426 21.03515625 55.16015625 C20.52726253 64.76058633 18.14158073 74.22465418 11 81 C10.01 81 9.02 81 8 81 C4.40813489 73.23154754 3.6855695 66.26075928 3.5 57.8125 C3.09061147 41.74659114 -0.10588441 25.21919754 -8.65625 11.3046875 C-10.55936621 8.0406219 -10.47998385 5.70273258 -10 2 C-6.98276132 -1.71352454 -4.35843159 -1.24448982 0 0 Z " fill="#FEFEFE" transform="translate(478,490)"/>
<path d="M0 0 C3.25 0.875 3.25 0.875 5.3125 2.8125 C7.06297515 8.53071883 5.00125482 13.66426402 2.3125 18.8125 C1.96703125 19.45960938 1.6215625 20.10671875 1.265625 20.7734375 C-2.65846402 28.89328324 -3.86753472 37.71980952 -3.85546875 46.65625 C-3.87770508 48.53763672 -3.87770508 48.53763672 -3.90039062 50.45703125 C-3.92512915 53.06889846 -3.93033835 55.68102366 -3.91601562 58.29296875 C-4.03227942 65.14900929 -4.20648946 69.8472636 -9.1730957 74.85351562 C-10.75 75.875 -10.75 75.875 -13.75 75.875 C-21.14519829 55.69975029 -23.82436186 39.02064359 -15.39453125 18.58984375 C-7.44788461 1.73783974 -7.44788461 1.73783974 0 0 Z " fill="#FEFEFE" transform="translate(282.75,595.125)"/>
<path d="M0 0 C9.13900879 10.68363 12.36243007 27.78661891 12.3125 41.4375 C12.32861328 42.31470703 12.34472656 43.19191406 12.36132812 44.09570312 C12.36693643 51.70617056 11.26594296 58.852857 6.75 65.125 C3.23326398 67.52277456 1.17217139 67.62976172 -3 67 C-5.52210693 63.2168396 -5.17818766 61.31044576 -5.0546875 56.796875 C-5.02933666 55.32553124 -5.00461927 53.85417645 -4.98046875 52.3828125 C-4.93146415 50.08590394 -4.87617346 47.78958936 -4.80810547 45.49316406 C-4.45793983 32.87065763 -5.99436293 22.23687796 -10.8125 10.4375 C-12.10879205 6.68507563 -12.33360816 4.73410285 -11 1 C-7.64107453 -1.97135714 -4.03520144 -1.34506715 0 0 Z " fill="#FEFEFE" transform="translate(450,540)"/>
<path d="M0 0 C3.85355383 5.78033074 0.30874891 14.76283888 -1 21.3125 C-2.71734909 30.20077642 -4.04179504 38.70065045 -3.98046875 47.7734375 C-3.97499023 48.63243652 -3.96951172 49.49143555 -3.96386719 50.37646484 C-3.94656224 52.09830682 -3.91764794 53.82007928 -3.87597656 55.54150391 C-3.86405273 56.33218262 -3.85212891 57.12286133 -3.83984375 57.9375 C-3.82300537 58.64777344 -3.80616699 59.35804688 -3.78881836 60.08984375 C-4 62 -4 62 -6 65 C-9.0810972 65.39125044 -11.05199652 65.61139292 -14 65 C-19.45029412 59.73138235 -19.10372999 49.38748643 -19.28759766 42.25268555 C-19.42742208 28.55126317 -18.06794987 14.07358009 -11 2 C-7.27667139 -1.52775984 -4.92877156 -1.27782966 0 0 Z " fill="#FEFEFE" transform="translate(330,607)"/>
<path d="M0 0 C8.90898416 7.53166567 11.26442765 23.01954385 12.28515625 34.09375 C12.52271079 41.94337815 12.19027447 52.02208516 7.1171875 58.34765625 C5 60 5 60 1.375 60.4375 C0.26125 60.293125 -0.8525 60.14875 -2 60 C-4.26674442 56.59988337 -4.21124173 55.58064956 -4.08984375 51.6171875 C-4.06768799 50.54001465 -4.04553223 49.4628418 -4.02270508 48.35302734 C-3.9945874 47.20527832 -3.96646973 46.0575293 -3.9375 44.875 C-3.78658858 32.77040315 -4.18472558 21.14314548 -8.609375 9.71875 C-10.55321407 4.52061856 -10.55321407 4.52061856 -9 1 C-5.92763131 -1.41400397 -3.60356641 -1.26124824 0 0 Z " fill="#FEFEFE" transform="translate(410,574)"/>
<path d="M0 0 C3.10517552 2.34648024 3.95436601 5.11826936 5.125 8.75 C5.45757812 9.75546875 5.79015625 10.7609375 6.1328125 11.796875 C9.79869412 25.33751881 9.75430666 42.66316224 2.9375 55.25 C1 58 1 58 -1 59 C-4.5 59.25 -4.5 59.25 -8 59 C-10 56 -10 56 -9.7578125 53.77734375 C-9.54898437 52.84019531 -9.34015625 51.90304687 -9.125 50.9375 C-7.90918759 43.92684142 -7.76512732 37.04582748 -7.75 29.9375 C-7.7411377 28.85009521 -7.73227539 27.76269043 -7.72314453 26.64233398 C-7.74594857 20.06336986 -8.36924456 13.93094102 -9.71777344 7.48754883 C-10 5 -10 5 -8.5 1.75 C-5.3572257 -0.44994201 -3.7614104 -0.64024007 0 0 Z " fill="#FEFEFE" transform="translate(369,597)"/>
<path d="" fill="#FFFFFF" transform="translate(0,0)"/>
<path d="" fill="#FFFFFF" transform="translate(0,0)"/>
</svg>
